<?xml version="1.0" encoding="UTF-8"?>
<svg width="32px" height="32px" viewBox="0 0 32 32" version="1.1" xmlns="http://www.w3.org/2000/svg" xmlns:xlink="http://www.w3.org/1999/xlink">
    <title>Icon-Industry/32/Advertising_32</title>
    <g id="Icon-Industry/32/Advertising_32" stroke="none" stroke-width="1" fill="none" fill-rule="evenodd">
        <path d="M8,5 L10,5 L10,4 L8,4 L8,5 Z M5,5 L7,5 L7,4 L5,4 L5,5 Z M4,6 L28,6 L28,3 L4,3 L4,6 Z M29,18.092 L29,2.5 C29,2.224 28.776,2 28.5,2 L3.5,2 C3.224,2 3,2.224 3,2.5 L3,10 L4,10 L4,7 L28,7 L28,18 L27.908,18 C27.701,17.419 27.151,17 26.5,17 L25.908,17 C25.701,16.419 25.151,16 24.5,16 L24,16 L24,13.5 C24,12.673 23.327,12 22.5,12 C21.673,12 21,12.673 21,13.5 L21,19 L20.5,19 C19.673,19 19,19.673 19,20.5 L19,23.895 C19,23.931 19.014,23.964 19.016,24 L4,24 L4,22 L3,22 L3,24.5 C3,24.776 3.224,25 3.5,25 L19.287,25 C19.333,25.093 19.362,25.194 19.42,25.281 L20.748,27.273 C20.913,27.521 21,27.809 21,28.105 L21,30 L22,30 L22,28.105 C22,27.611 21.854,27.131 21.58,26.719 L20.252,24.727 C20.087,24.479 20,24.191 20,23.895 L20,20.5 C20,20.224 20.225,20 20.5,20 L21,20 L21,23 L22,23 L22,13.5 C22,13.224 22.225,13 22.5,13 C22.775,13 23,13.224 23,13.5 L23,20 L24,20 L24,17 L24.5,17 C24.775,17 25,17.224 25,17.5 L25,21 L26,21 L26,18 L26.5,18 C26.775,18 27,18.224 27,18.5 L27,22 L28,22 L28,19 L28.5,19 C28.775,19 29,19.224 29,19.5 L29,23.028 C29,23.259 28.945,23.492 28.842,23.699 L27.264,26.854 C27.091,27.2 27,27.586 27,27.972 L27,30 L28,30 L28,27.972 C28,27.741 28.055,27.508 28.158,27.301 L29.736,24.146 C29.909,23.8 30,23.414 30,23.028 L30,19.5 C30,18.849 29.581,18.299 29,18.092 L29,18.092 Z M10.956,16 L15,12.578 L15,19.422 L10.956,16 Z M7.818,16.655 L8.677,17.382 C8.771,17.46 8.885,17.5 9,17.5 C9.115,17.5 9.229,17.46 9.323,17.382 L10.182,16.655 L14.135,20 L3.865,20 L7.818,16.655 Z M7.044,16 L3,19.422 L3,12.578 L7.044,16 Z M9,16.345 L3.865,12 L14.135,12 L9,16.345 Z M16,20.5 L16,11.5 C16,11.224 15.776,11 15.5,11 L2.5,11 C2.224,11 2,11.224 2,11.5 L2,20.5 C2,20.776 2.224,21 2.5,21 L15.5,21 C15.776,21 16,20.776 16,20.5 L16,20.5 Z" id="Fill-6" fill="#232F3E"></path>
    </g>
</svg>