<?xml version="1.0" encoding="UTF-8"?>
<svg width="32px" height="32px" viewBox="0 0 32 32" version="1.1" xmlns="http://www.w3.org/2000/svg" xmlns:xlink="http://www.w3.org/1999/xlink">
    <!-- Generator: Sketch 64 (93537) - https://sketch.com -->
    <title>Icon-Industry/32/E-Commerce_32</title>
    <desc>Created with Sketch.</desc>
    <g id="Icon-Industry/32/E-Commerce_32" stroke="none" stroke-width="1" fill="none" fill-rule="evenodd">
        <path d="M27.9996996,6 C27.4476996,6 26.9996996,5.551 26.9996996,5 C26.9996996,4.449 27.4476996,4 27.9996996,4 C28.5516996,4 28.9996996,4.449 28.9996996,5 C28.9996996,5.551 28.5516996,6 27.9996996,6 L27.9996996,6 Z M23.7616996,13 L3.69969959,13 L3.15369959,11 L24.1396996,11 L23.7616996,13 Z M22.9996996,17.026 L22.9996996,17 L4.79069959,17 L3.99969959,14 L23.5716996,14 L22.9996996,17.026 Z M23.9996996,26 C23.9996996,27.103 23.1026996,28 21.9996996,28 C20.8966996,28 19.9996996,27.103 19.9996996,26 C19.9996996,24.897 20.8966996,24 21.9996996,24 C23.1026996,24 23.9996996,24.897 23.9996996,26 L23.9996996,26 Z M5.88169959,21 L5.06369959,18 L22.8146996,18 L22.2476996,21 L5.88169959,21 Z M8.99969959,28 C7.89669959,28 6.99969959,27.103 6.99969959,26 C6.99969959,24.897 7.89669959,24 8.99969959,24 C10.1026996,24 10.9996996,24.897 10.9996996,26 C10.9996996,27.103 10.1026996,28 8.99969959,28 L8.99969959,28 Z M27.9996996,3 C26.8966996,3 25.9996996,3.897 25.9996996,5 C25.9996996,5.223 26.0446996,5.434 26.1126996,5.634 L25.2756996,6.053 C25.1366996,6.123 25.0376996,6.253 25.0086996,6.407 L24.3286996,10 L2.49969959,10 C2.34469959,10 2.19669959,10.066 2.10269959,10.19 C2.00769959,10.314 1.97669959,10.475 2.01769959,10.625 L3.99969959,17.898 L3.99969959,18 L4.02669959,18 L5.01769959,21.631 C5.07669959,21.849 5.27369959,22 5.49969959,22 L22.0596996,22 L21.8666996,23.013 C20.6236996,23.069 19.5836996,23.879 19.1846996,25 L11.8146996,25 C11.4006996,23.838 10.3016996,23 8.99969959,23 C7.34569959,23 5.99969959,24.346 5.99969959,26 C5.99969959,27.654 7.34569959,29 8.99969959,29 C10.6536996,29 11.9996996,27.654 11.9996996,26 L18.9996996,26 C18.9996996,27.654 20.3456996,29 21.9996996,29 C23.6536996,29 24.9996996,27.654 24.9996996,26 C24.9996996,24.647 24.0936996,23.514 22.8606996,23.141 L25.9446996,6.836 L26.6636996,6.477 C27.0186996,6.799 27.4836996,7 27.9996996,7 C29.1026996,7 29.9996996,6.103 29.9996996,5 C29.9996996,3.897 29.1026996,3 27.9996996,3 L27.9996996,3 Z" id="E-Commerce_Industry-Icon_32_Squid" fill="#232F3E"></path>
    </g>
</svg>